<?xml version="1.0" encoding="UTF-8" standalone="no"?>
<!-- Created with Inkscape (http://www.inkscape.org/) -->

<svg
   xmlns:dc="http://purl.org/dc/elements/1.1/"
   xmlns:cc="http://creativecommons.org/ns#"
   xmlns:rdf="http://www.w3.org/1999/02/22-rdf-syntax-ns#"
   xmlns:svg="http://www.w3.org/2000/svg"
   xmlns="http://www.w3.org/2000/svg"
   xmlns:sodipodi="http://sodipodi.sourceforge.net/DTD/sodipodi-0.dtd"
   xmlns:inkscape="http://www.inkscape.org/namespaces/inkscape"
   width="75.393654mm"
   height="75.393654mm"
   viewBox="0 0 267.14287 267.14287"
   id="svg2"
   version="1.1"
   inkscape:version="0.91 r13725"
   inkscape:export-filename="C:\Users\User\lightpos.png"
   inkscape:export-xdpi="431.22992"
   inkscape:export-ydpi="431.22992"
   sodipodi:docname="lightpos.svg">
  <defs
     id="defs4" />
  <sodipodi:namedview
     id="base"
     pagecolor="#ffffff"
     bordercolor="#666666"
     borderopacity="1.0"
     inkscape:pageopacity="0.0"
     inkscape:pageshadow="2"
     inkscape:zoom="0.98994949"
     inkscape:cx="120.86126"
     inkscape:cy="43.298234"
     inkscape:document-units="px"
     inkscape:current-layer="g4257"
     showgrid="false"
     fit-margin-top="0"
     fit-margin-left="0"
     fit-margin-right="0"
     fit-margin-bottom="0"
     inkscape:window-width="1366"
     inkscape:window-height="705"
     inkscape:window-x="-8"
     inkscape:window-y="-8"
     inkscape:window-maximized="1" />
  <metadata
     id="metadata7">
    <rdf:RDF>
      <cc:Work
         rdf:about="">
        <dc:format>image/svg+xml</dc:format>
        <dc:type
           rdf:resource="http://purl.org/dc/dcmitype/StillImage" />
        <dc:title></dc:title>
      </cc:Work>
    </rdf:RDF>
  </metadata>
  <g
     inkscape:label="Camada 1"
     inkscape:groupmode="layer"
     id="layer1"
     transform="translate(-76.428572,-600.2194)">
    <g
       id="g4257"
       transform="translate(-1.9919418,6.9177884)">
      <g
         transform="matrix(0.99529621,0.09687856,-0.09687856,0.99529621,60.247338,108.89318)"
         id="g4199">
        <path
           inkscape:connector-curvature="0"
           id="path4239"
           d="m 203.7466,632.11807 c -21.80863,-1.03928 -31.64906,-2.41619 -32.34862,-4.52633 -0.55296,-1.66798 -2.55206,-3.03268 -4.44243,-3.03268 -1.89037,0 -3.43704,-1.63765 -3.43704,-3.63922 0,-2.00157 -0.90459,-3.63922 -2.0102,-3.63922 -4.27677,0 -24.67741,-15.19082 -24.67741,-18.37542 0,-1.8487 -4.09412,-5.5097 -9.09804,-8.13555 -16.37691,-8.59391 -41.819028,-38.57462 -41.841951,-49.30608 -0.01162,-5.44333 2.747,-5.36993 9.974864,0.26543 3.18231,2.48115 11.230457,5.31623 17.884777,6.30018 6.65433,0.98395 14.84257,3.16382 18.1961,4.84417 4.10513,2.05694 8.47543,2.36615 13.37576,0.94635 4.00314,-1.15985 10.00786,-1.43633 13.34381,-0.6144 3.33595,0.82193 12.7835,1.84552 20.99455,2.27463 15.12642,0.7905 26.51228,4.99375 32.24789,11.90473 3.95502,4.7655 6.08941,4.77439 10.81872,0.0451 3.18344,-3.18345 5.24875,-3.30631 13.58662,-0.80822 8.84345,2.64956 10.52438,2.43437 16.71052,-2.13924 3.78291,-2.79683 10.60157,-5.78368 15.15258,-6.63745 7.79288,-1.46196 8.45658,-1.04894 11.4015,7.09509 2.0014,5.53477 6.99253,11.30701 13.86616,16.03619 11.33365,7.79775 15.02883,7.53277 25.80075,-1.85018 4.32092,-3.76378 9.3877,-2.35749 9.05132,2.51222 -0.27365,3.96123 -30.30753,28.36403 -34.90919,28.36403 -2.04025,0 -3.70955,1.08061 -3.70955,2.40136 0,1.32075 -5.75833,6.22469 -12.7963,10.89763 -15.04415,9.98876 -24.53494,11.13293 -73.13519,8.8169 z"
           style="fill:#f4f4f4" />
        <path
           inkscape:connector-curvature="0"
           id="path4237"
           d="m 171.40348,627.01939 c -3.00235,-2.44816 -5.46198,-5.36796 -5.46585,-6.48845 -0.004,-1.12049 -5.17352,-4.76666 -11.48812,-8.10261 -6.31461,-3.33595 -12.79247,-8.72782 -14.39525,-11.98192 -1.60277,-3.25411 -5.98607,-7.49169 -9.74065,-9.41684 -10.50333,-5.38556 -41.478839,-37.52434 -43.349443,-44.97742 -2.357053,-9.39124 -0.494198,-9.93542 9.889445,-2.88889 5.593788,3.79605 12.498108,6.18878 17.874008,6.19435 4.81771,0.005 12.18192,2.09596 16.3649,4.64662 4.75742,2.90093 8.46113,3.78184 9.89056,2.35241 2.90908,-2.90909 11.23082,-2.96648 37.71532,-0.26011 18.51343,1.89182 22.4731,3.1577 30.7941,9.84464 l 9.54884,7.67365 3.69862,-5.28052 c 3.23201,-4.61434 4.4883,-4.92072 9.958,-2.42856 9.31549,4.24442 17.54543,3.46834 23.20168,-2.18791 2.77193,-2.77194 6.55815,-4.45727 8.41381,-3.74518 1.85567,0.71208 4.01922,0.25061 4.80789,-1.02549 2.76201,-4.46902 5.61035,-2.23069 10.79795,8.48546 2.877,5.9431 7.335,11.47345 9.90665,12.28966 2.57164,0.81621 6.39382,3.20212 8.49372,5.30202 3.47323,3.47323 4.89791,3.31218 15.77725,-1.78343 15.26847,-7.15136 18.45805,-4.03999 5.95563,5.80961 -5.31134,4.18434 -12.5729,10.61026 -16.13681,14.2798 -3.56391,3.66955 -8.03503,6.6719 -9.93583,6.6719 -1.90079,0 -6.10277,2.83566 -9.33772,6.30147 -13.038,13.96841 -20.23595,15.6496 -65.92493,15.3977 -36.78428,-0.20281 -42.51627,-0.77002 -47.31377,-4.68196 z"
           style="fill:#ebebeb" />
        <path
           inkscape:connector-curvature="0"
           id="path4231"
           d="m 174.74273,626.43522 c -1.47777,-2.36627 -4.1263,-4.30231 -5.88564,-4.30231 -1.75934,0 -2.56269,-1.02926 -1.7852,-2.28725 0.77748,-1.25799 -3.25221,-4.37478 -8.95487,-6.92621 -11.43798,-5.11747 -22.06582,-15.01636 -16.20331,-15.09195 1.87479,-0.0242 -2.05012,-3.12093 -8.72203,-6.88169 -20.54872,-11.58271 -44.883694,-37.2261 -44.883694,-47.29694 0,-4.42635 0.303386,-4.4824 4.365192,-0.80651 2.400856,2.17274 11.732482,5.49475 20.736952,7.38225 9.00447,1.88749 18.57033,5.42148 21.25746,7.8533 4.12752,3.73535 5.2184,3.88316 7.02966,0.95246 1.60897,-2.60335 6.86947,-3.34566 21.08067,-2.97469 29.79021,0.77766 35.79139,2.41804 47.92754,13.1007 6.0723,5.34506 11.04055,8.45575 11.04055,6.91266 0,-6.5894 6.9629,-10.05268 15.4818,-7.7005 6.06926,1.6758 9.82644,1.40977 13.99677,-0.99106 10.80697,-6.22148 12.26183,-6.59524 14.09928,-3.62218 1.37333,2.22209 2.21983,2.00281 3.31822,-0.85954 2.30772,-6.01382 5.23207,-4.57317 9.68905,4.77322 2.25974,4.73871 7.36799,10.47048 11.35167,12.73726 3.98368,2.26678 7.24996,5.48612 7.25839,7.15409 0.0213,4.21432 4.32671,3.72192 16.75308,-1.916 5.86979,-2.66317 11.10602,-4.40846 11.63606,-3.87842 0.53004,0.53004 -3.72663,4.56658 -9.4593,8.97008 -5.73264,4.4035 -12.18377,10.15096 -14.33584,12.77213 -2.15207,2.62118 -5.16213,3.99368 -6.68904,3.05 -1.5269,-0.94368 -3.40378,-0.0803 -4.17083,1.91862 -0.76706,1.99893 -7.44383,7.79989 -14.83727,12.89104 l -13.44261,9.25664 -42.48294,0.0566 c -38.08184,0.0507 -42.76129,-0.38915 -45.16977,-4.24575 z"
           style="fill:#c7c7c7" />
        <path
           inkscape:connector-curvature="0"
           id="path4229"
           d="m 175.96736,628.58158 c -1.4862,-1.79075 -1.9838,-3.97428 -1.10579,-4.85229 0.87801,-0.87801 -0.22323,-1.59638 -2.44719,-1.59638 -2.22397,0 -4.04358,-1.04068 -4.04358,-2.31262 0,-1.27194 -4.64,-4.38873 -10.31112,-6.92621 -5.67112,-2.53747 -12.39092,-6.95562 -14.9329,-9.81811 -4.54494,-5.11799 -4.54494,-5.2054 0,-5.2578 2.54405,-0.0293 -0.28628,-2.25823 -6.29588,-4.95804 -6.00471,-2.69762 -14.19295,-8.43171 -18.19609,-12.74243 -4.00314,-4.31071 -9.5844,-9.44901 -12.40279,-11.41844 -6.316003,-4.41347 -17.924034,-21.20683 -17.924034,-25.93074 0,-2.65435 1.464302,-2.32492 6.190488,1.39269 3.46393,2.72473 12.027326,5.59871 19.442696,6.5252 7.49038,0.93586 15.97846,3.80022 19.52259,6.58804 5.01365,3.94373 6.67178,4.28283 8.27308,1.69188 1.65198,-2.67297 2.67235,-2.68464 5.82681,-0.0667 3.2307,2.68124 3.82413,2.52263 3.82413,-1.02211 0,-3.0298 1.17993,-3.72083 4.24575,-2.48654 2.33517,0.94013 12.25653,2.16138 22.04746,2.71389 19.80854,1.11782 24.71738,2.99642 36.18005,13.846 4.33673,4.10479 7.88497,6.07933 7.88497,4.38787 0,-6.8557 6.33731,-9.87594 15.44555,-7.36103 8.79134,2.4274 17.52626,0.0213 21.36827,-5.88606 1.09898,-1.68977 2.79507,-1.55045 5.17549,0.42513 2.82397,2.34368 3.82832,2.18931 4.96106,-0.76255 2.31741,-6.03906 5.42686,-4.28002 9.87631,5.58711 2.30364,5.10853 7.38239,11.17497 11.28613,13.48096 3.90374,2.306 7.09771,5.22277 7.09771,6.4817 0,3.66021 6.72237,2.66894 17.70677,-2.61099 l 10.19391,-4.89997 -14.1852,13.56098 c -7.80186,7.45853 -14.77449,12.97169 -15.49472,12.25145 -0.72024,-0.72023 -6.56156,3.41251 -12.98071,9.18389 -15.3361,13.78847 -26.08735,16.56658 -58.80011,15.19389 -14.43761,-0.60583 -26.80216,-1.65346 -27.47676,-2.32806 -0.6746,-0.6746 -4.6854,-0.23457 -8.91289,0.97786 -4.22748,1.21243 -7.8328,2.20441 -8.01181,2.20441 -0.17902,0 -1.54146,-1.46516 -3.02765,-3.25591 z"
           style="fill:#b9b9b9" />
        <path
           inkscape:connector-curvature="0"
           id="path4227"
           d="m 226.37104,630.85504 c -0.79218,-0.82162 -12.08665,-1.66396 -25.09882,-1.87187 -17.20508,-0.2749 -23.99722,-1.26074 -24.9003,-3.61413 -0.68301,-1.77987 -2.76267,-3.23613 -4.62147,-3.23613 -1.85881,0 -3.37965,-1.63765 -3.37965,-3.63922 0,-2.00157 -1.93009,-3.63922 -4.2891,-3.63922 -5.10978,0 -22.3985,-11.30351 -22.3985,-14.64434 0,-1.28627 1.91059,-2.39968 4.24575,-2.47423 2.33517,-0.0746 -0.66719,-2.11807 -6.6719,-4.54115 -17.6468,-7.12099 -55.373231,-45.08305 -50.071779,-50.3845 0.679291,-0.67929 3.72266,0.5073 6.763041,2.63686 3.040383,2.12957 10.821598,4.57416 17.291588,5.43244 6.46999,0.85827 15.43389,4.05121 19.91978,7.09542 6.93606,4.70693 8.36939,4.97922 9.58162,1.82022 1.09329,-2.84909 2.20076,-3.07125 4.75264,-0.95339 2.5498,2.11615 3.65658,1.90291 4.73702,-0.91269 1.10769,-2.88658 2.7622,-3.15984 7.71971,-1.275 3.47043,1.31946 13.09235,2.39901 21.38204,2.39901 15.61587,0 20.66227,2.11925 33.7414,14.16979 3.72273,3.42996 6.6719,4.79753 6.6719,3.09385 0,-7.11701 6.07829,-9.63141 16.5355,-6.84022 8.97296,2.39502 10.84183,2.10989 17.25677,-2.63288 4.56538,-3.37533 7.76955,-4.38757 8.7691,-2.77026 0.9868,1.59667 2.73836,0.95764 4.6897,-1.71097 2.82835,-3.868 3.5662,-3.37961 8.0277,5.31364 2.70219,5.26523 8.29228,11.54546 12.42242,13.95606 4.13013,2.41061 7.50933,5.95001 7.50933,7.86533 0,2.95306 1.49047,2.88605 9.80524,-0.44087 5.39289,-2.1578 10.33354,-3.39496 10.97926,-2.74924 1.61637,1.61636 -21.39062,20.21929 -23.96939,19.38111 -1.14136,-0.37098 -4.24683,2.08627 -6.90103,5.46054 -8.77417,11.15455 -25.17183,18.83154 -42.8643,20.06805 -8.90721,0.62251 -16.84309,0.45961 -17.63527,-0.36201 z"
           style="fill:#a7a7a7" />
        <path
           inkscape:connector-curvature="0"
           id="path4225"
           d="m 213.7874,630.17 c -9.54688,-0.5709 -15.85197,-1.95154 -15.02476,-3.28999 0.86345,-1.39711 -1.08264,-1.35275 -4.9366,0.11252 -9.83375,3.73879 -16.07179,2.92794 -17.42993,-2.2656 -0.74731,-2.85774 -2.58956,-4.16078 -4.72437,-3.34157 -1.92465,0.73855 -3.18178,0.21665 -2.79362,-1.15978 0.38817,-1.37643 -5.21184,-5.61606 -12.44444,-9.4214 -13.65993,-7.18698 -18.39382,-12.91547 -10.70691,-12.95643 2.44637,-0.013 -1.27603,-2.6886 -8.27198,-5.94571 -16.53446,-7.69795 -49.050951,-39.39568 -49.130818,-47.89371 -0.0088,-0.93554 4.624018,0.40519 10.295134,2.9794 5.671114,2.57421 13.775594,4.70437 18.009944,4.73367 4.71314,0.0326 10.63722,2.52578 15.2757,6.4288 7.1353,6.00395 7.76083,6.12393 10.73347,2.05861 2.39767,-3.27901 3.61021,-3.58296 5.04327,-1.26421 1.19421,1.93226 2.44323,2.15352 3.40302,0.60282 0.97496,-1.5752 9.82974,-1.82076 24.80112,-0.68779 24.30344,1.83918 35.2788,6.47125 41.09838,17.34523 1.37862,2.57597 3.62436,4.68357 4.99054,4.68357 1.36619,0 1.81796,-1.07763 1.00394,-2.39473 -2.4907,-4.03004 6.84655,-12.24779 10.96037,-9.64626 5.94309,3.75833 15.89876,2.6257 22.4895,-2.55858 4.03511,-3.17402 6.78503,-3.98558 7.82162,-2.30834 1.10993,1.79591 2.66306,1.70327 5.0805,-0.30302 4.03516,-3.34889 3.93257,-3.42568 9.16247,6.85875 2.19386,4.31414 7.24566,9.52807 11.22621,11.58649 3.98055,2.05843 7.23737,5.3522 7.23737,7.31951 0,4.3976 -0.13349,4.39879 10.62137,-0.0949 4.83328,-2.01947 8.7878,-3.15067 8.7878,-2.51377 0,2.97139 -20.74288,20.08388 -21.95916,18.11589 -0.76013,-1.22992 -3.77028,0.99403 -6.68921,4.9421 -12.60152,17.04446 -33.25853,22.71052 -73.92993,20.2784 z m 37.71226,-31.58024 c -2.98401,-0.57588 -8.44284,-0.59078 -12.13073,-0.0331 -3.6879,0.55766 -1.24644,1.02883 5.42547,1.04705 6.6719,0.0182 9.68926,-0.43806 6.70526,-1.01393 z"
           style="fill:#7c7c7c;fill-opacity:1" />
        <path
           inkscape:connector-curvature="0"
           id="path4223"
           d="m 216.07794,630.09723 c -17.15489,-0.80986 -18.69522,-1.27927 -15.76995,-4.80583 2.84581,-3.43078 2.25845,-3.39986 -4.80726,0.25304 -9.85567,5.09528 -18.77082,4.31924 -18.30145,-1.59309 0.18533,-2.33452 -1.17938,-4.24459 -3.03269,-4.24459 -1.8533,0 -3.36964,-1.09176 -3.36964,-2.42614 0,-1.33438 -1.965,-2.42615 -4.36666,-2.42615 -5.00065,0 -24.74709,-12.17837 -24.74709,-15.26246 0,-1.12615 2.18353,-1.35451 4.85229,-0.50748 10.35153,3.28545 4.20926,-2.72868 -6.76906,-6.62783 -15.89133,-5.6441 -49.032298,-37.19058 -49.032298,-46.67324 0,-0.80186 2.234076,-0.26229 4.964615,1.19905 2.730537,1.46134 11.090113,3.65393 18.576833,4.87242 8.40909,1.36862 15.91232,4.32696 19.62965,7.7395 4.17036,3.82842 6.3497,4.59316 7.09988,2.49137 1.39945,-3.92083 7.19379,-3.92083 8.77588,0 0.77427,1.91884 1.29406,1.57191 1.41525,-0.94459 0.16709,-3.46983 2.90002,-3.81554 21.42032,-2.70964 23.3131,1.39209 29.7571,3.75143 40.63794,14.87876 7.85957,8.03761 12.27834,9.77113 10.0403,3.93888 -0.85067,-2.21679 -0.004,-3.63921 2.16657,-3.63921 1.95969,0 3.56308,-1.07088 3.56308,-2.37974 0,-1.42611 4.39276,-1.77763 10.96204,-0.87721 8.54686,1.17147 12.00142,0.56188 15.67958,-2.76681 2.59465,-2.34813 6.3609,-3.63871 8.36943,-2.86796 2.00854,0.77075 4.29717,0.35728 5.08584,-0.91883 2.56807,-4.15522 5.02799,-2.47366 9.20979,6.29567 2.25974,4.73872 7.3766,10.47049 11.37079,12.73727 4.25942,2.41729 6.7477,5.48696 6.0179,7.42399 -1.23595,3.28047 2.79232,2.96837 14.96166,-1.15918 2.74067,-0.92957 1.21516,1.64865 -3.94162,6.66156 -4.62702,4.49793 -9.53997,8.24699 -10.91766,8.33124 -1.37769,0.0843 -6.48999,4.00225 -11.36068,8.70665 -16.14295,15.59185 -30.05011,19.11026 -68.38358,17.30058 z M 250.19911,598.527 c -5.03369,-0.5252 -12.67605,-0.51639 -16.98302,0.0196 -4.30697,0.53589 -0.1885,0.9656 9.15216,0.95483 9.34066,-0.0107 12.86455,-0.44928 7.83086,-0.97448 z m -86.6806,-13.73978 c 0,-0.52442 -1.69435,-1.60368 -3.76523,-2.39835 -2.15909,-0.82852 -3.13294,-0.42179 -2.28296,0.9535 1.42477,2.30533 6.04819,3.40982 6.04819,1.44485 z"
           style="fill:#878787" />
        <path
           inkscape:connector-curvature="0"
           id="path4221"
           d="m 177.43383,627.96108 c -0.79764,-0.79765 -0.8628,-2.98118 -0.14479,-4.85229 0.78622,-2.04884 -0.24529,-3.40203 -2.5933,-3.40203 -2.14434,0 -3.89879,-0.95529 -3.89879,-2.12287 0,-1.16759 -3.15463,-2.75381 -7.01029,-3.52494 -8.74176,-1.74835 -23.11771,-13.56779 -16.64464,-13.68468 4.85051,-0.0876 5.91416,-4.92896 1.0829,-4.92896 -6.13497,0 -28.16974,-12.50783 -29.51792,-16.75557 -0.75112,-2.36656 -4.26138,-5.84235 -7.80057,-7.72397 -6.27694,-3.33716 -20.172298,-20.20859 -20.172298,-24.49275 0,-1.18112 2.456473,-0.81313 5.458828,0.81775 3.002356,1.63089 11.31021,3.77489 18.4619,4.76445 8.20434,1.13522 15.11713,3.78526 18.73151,7.1808 4.57605,4.29898 6.43139,4.79818 9.22278,2.48153 2.38029,-1.97546 3.99561,-2.08899 5.0666,-0.35609 2.14399,3.46905 6.28226,3.22559 5.53164,-0.32544 -0.84095,-3.97833 38.55786,-2.56726 46.6651,1.67132 3.35697,1.75506 9.31019,6.56379 13.22938,10.68606 7.59866,7.99238 12.49036,9.84283 10.19293,3.85581 -0.85067,-2.21679 -0.004,-3.63921 2.16657,-3.63921 1.95969,0 3.56308,-1.07088 3.56308,-2.37974 0,-1.42611 4.39276,-1.77763 10.96204,-0.87721 8.57617,1.17549 11.99857,0.56447 15.72444,-2.8074 3.76705,-3.40913 5.49158,-3.70474 8.25128,-1.4144 2.77899,2.30636 3.98536,2.00836 5.92891,-1.46456 1.34201,-2.39804 2.79484,-3.82329 3.22852,-3.16721 0.43368,0.65607 2.46591,4.46816 4.51608,8.4713 2.05016,4.00314 7.19836,9.46197 11.44045,12.13073 4.38007,2.75557 7.21303,6.27936 6.55612,8.15487 -1.15029,3.28413 3.17086,2.93923 15.04919,-1.20117 2.65879,-0.92677 0.81736,2.09839 -4.5429,7.46319 -4.95772,4.96193 -9.91263,8.46633 -11.01089,7.78757 -1.09827,-0.67877 -5.76579,2.62054 -10.37226,7.33179 -15.15583,15.50057 -22.56664,17.78318 -57.45394,17.69643 -27.81404,-0.0692 -30.54192,-0.44634 -26.32055,-3.63922 5.97974,-4.52285 4.19935,-4.50253 -6.76139,0.0771 -9.26811,3.87246 -14.42918,4.54549 -16.78572,2.18895 z m 84.34359,-28.91233 c -5.28446,-1.88575 -42.38353,-2.62768 -39.48733,-0.78969 1.70233,1.08033 11.82926,1.89476 22.50431,1.80985 10.67504,-0.0849 18.3174,-0.54398 16.98302,-1.02016 z m -72.22839,-7.49539 c -0.80619,-0.80618 -2.89874,-0.89238 -4.65011,-0.19154 -1.93542,0.77449 -1.36053,1.34938 1.4658,1.4658 2.55756,0.10534 3.9905,-0.46807 3.18431,-1.27426 z m -11.47365,-2.69276 c -2.00157,-0.74214 -10.73444,-3.98458 -19.40639,-7.20543 -8.67194,-3.22085 -14.67665,-4.84427 -13.3438,-3.60761 3.23932,3.00554 28.1595,12.30965 32.75019,12.2275 3.23486,-0.0579 3.23486,-0.21505 0,-1.41446 z"
           style="fill:#787878" />
        <path
           inkscape:connector-curvature="0"
           id="path4219"
           d="m 178.77836,624.55906 c -0.6979,-2.66876 -2.84365,-4.8523 -4.76834,-4.8523 -1.92469,0 -2.89868,-0.97205 -2.16441,-2.16012 0.73426,-1.18806 -2.20366,-2.83019 -6.52872,-3.64917 -4.32506,-0.81897 -11.13904,-4.17472 -15.14218,-7.45721 -7.03287,-5.7668 -7.08943,-5.9711 -1.67643,-6.05541 7.99411,-0.12451 4.80424,-3.53097 -6.93417,-7.40499 -5.5368,-1.82731 -15.04521,-8.02483 -21.1298,-13.77227 -6.08459,-5.74744 -11.97413,-10.44989 -13.08788,-10.44989 -2.35221,0 -16.612298,-19.10951 -16.612298,-22.26163 0,-1.16844 3.002355,-0.60915 6.671901,1.24286 3.669547,1.85201 11.479497,3.98217 17.355447,4.73369 5.87595,0.75151 13.85561,3.7116 17.73258,6.57796 5.37092,3.97089 7.82993,4.56349 10.32923,2.48925 2.25945,-1.87517 3.76948,-1.93068 4.85246,-0.17837 2.21224,3.57949 6.13817,3.16788 6.13817,-0.64354 0,-2.38372 3.82369,-2.972 15.16342,-2.33291 26.13431,1.47289 30.88049,2.94559 41.73359,12.94964 10.74681,9.90606 13.46123,11.32268 13.46123,7.02524 0,-5.9988 6.11585,-8.76849 17.04346,-7.71849 8.37003,0.80426 12.23605,0.0301 15.33742,-3.07128 3.20703,-3.20703 4.91147,-3.51178 7.52232,-1.34496 2.62708,2.18028 3.89572,1.87246 5.72036,-1.38801 2.05574,-3.6734 2.82691,-3.25702 6.25866,3.37927 2.15272,4.16289 7.72572,10.47621 12.38445,14.0296 4.65873,3.55338 7.77735,7.58211 6.93027,8.95272 -1.01934,1.64933 1.60829,1.90138 7.77039,0.74536 l 9.31055,-1.74667 -7.99342,7.46697 c -4.39638,4.10683 -8.95913,6.87012 -10.13945,6.14064 -1.18032,-0.72948 -5.69996,2.72137 -10.04365,7.66856 -12.97131,14.7735 -22.7816,17.82312 -57.53239,17.88446 -27.05404,0.0478 -29.69564,-0.31608 -25.47453,-3.50877 6.07827,-4.59737 3.83025,-4.62199 -7.04705,-0.0772 -11.46332,4.78968 -13.92195,4.59652 -15.44119,-1.21307 z m 86.16071,-25.54775 c -0.70746,-0.70745 -15.35532,-1.72071 -32.5508,-2.25167 -19.49431,-0.60194 -27.15431,-0.25487 -20.34684,0.9219 12.62245,2.18198 54.81038,3.24252 52.89764,1.32977 z m -82.01139,-9.39374 c -10.00786,-3.02385 -23.96109,-8.01133 -31.00719,-11.08327 -7.04611,-3.07195 -13.35699,-5.03948 -14.02418,-4.37229 -2.93661,2.93662 47.2033,20.92727 58.37517,20.94555 2.66876,0.004 -3.33595,-2.46613 -13.3438,-5.48999 z"
           style="fill:#676767" />
        <path
           inkscape:connector-curvature="0"
           id="path4217"
           d="m 179.28846,626.9852 c -0.8247,-1.33438 -0.8247,-3.51791 0,-4.85229 0.82469,-1.33438 -0.20264,-2.42615 -2.28297,-2.42615 -2.08032,0 -3.7824,-0.95529 -3.7824,-2.12287 0,-1.16759 -3.00235,-2.76286 -6.6719,-3.54506 -3.66955,-0.7822 -10.49308,-3.8397 -15.16341,-6.79443 l -8.49151,-5.37224 6.06536,-1.62489 c 5.53242,-1.48212 4.82636,-2.18495 -8.03551,-7.99879 -9.25029,-4.18132 -19.8911,-12.1412 -30.93336,-23.13975 -17.505813,-17.43653 -21.021484,-23.62818 -11.373654,-20.03082 3.002354,1.11948 10.567874,2.78548 16.812264,3.70222 6.2444,0.91674 14.05896,3.79496 17.3657,6.39604 6.83105,5.3733 11.31227,6.09343 11.31227,1.81787 0,-2.2644 0.64697,-2.2644 2.91138,0 3.85217,3.85217 6.7932,3.69125 6.7932,-0.3717 0,-2.46374 3.17878,-3.04601 12.73727,-2.33313 30.19296,2.2518 32.66904,3.0411 45.37375,14.46373 8.46274,7.60873 12.24722,9.78564 12.24722,7.04485 0,-7.34695 5.39249,-10.38316 16.26467,-9.1577 7.06018,0.79578 12.22195,-0.0769 16.31425,-2.75832 4.2985,-2.81648 6.46849,-3.14234 7.6963,-1.15571 1.18193,1.91241 2.6673,1.45744 4.81042,-1.47346 2.8106,-3.84373 3.54935,-3.36033 7.9013,5.17019 2.64044,5.17569 7.69855,10.96118 11.24022,12.85663 4.45634,2.38496 6.07288,4.84793 5.24919,7.99772 -0.86871,3.32193 -0.19407,4.16919 2.49736,3.13639 2.02817,-0.77829 6.58852,-2.13253 10.1341,-3.00944 l 6.44651,-1.59437 -7.62867,6.45701 c -4.19576,3.55136 -8.86912,6.45701 -10.38524,6.45701 -1.51612,0 -6.0465,3.74702 -10.06751,8.3267 -12.96735,14.769 -24.05628,18.36091 -56.68368,18.36091 -25.18698,0 -28.28023,-0.43931 -25.62454,-3.63922 1.66116,-2.00157 2.47405,-3.63922 1.80644,-3.63922 -0.66762,0 -5.1333,1.63765 -9.92373,3.63922 -10.23738,4.27745 -12.90334,4.49404 -14.93109,1.21307 z m 83.70203,-29.11375 c -3.33595,-1.06836 -17.67971,-2.05129 -31.87503,-2.1843 -28.10795,-0.26338 -50.27099,-5.39205 -84.35716,-19.52078 -9.88531,-4.09746 -18.35316,-7.07006 -18.81745,-6.60577 -2.08625,2.08625 38.7016,18.95472 56.1999,23.24237 25.67971,6.29236 29.60016,6.74675 59.44057,6.88928 16.02091,0.0765 23.22367,-0.59918 19.40917,-1.8208 z"
           style="fill:#2c2c2c;fill-opacity:1" />
        <path
           inkscape:connector-curvature="0"
           id="path4215"
           d="m 180.21422,626.54216 c -0.15801,-1.7579 -0.15801,-4.015 0,-5.01579 0.15802,-1.00078 -1.35034,-1.81961 -3.35191,-1.81961 -2.00157,0 -3.63922,-0.91895 -3.63922,-2.04211 0,-1.12317 -4.09412,-3.30987 -9.09805,-4.85933 -5.00392,-1.54947 -11.82746,-4.9733 -15.16341,-7.60852 l -6.06536,-4.79131 5.45883,-0.0539 c 9.06257,-0.0896 6.17954,-3.51134 -6.8608,-8.14286 -8.90761,-3.1637 -17.30684,-9.26663 -30.32682,-22.03562 -17.252787,-16.9202 -23.222559,-26.12552 -13.761447,-21.21999 2.335165,1.21077 9.362607,2.94338 15.616547,3.85023 6.25394,0.90686 15.2982,4.31405 20.09838,7.57153 7.38324,5.01041 8.94787,5.34862 10.15774,2.19576 1.26171,-3.28796 1.9664,-3.24167 5.9827,0.39303 4.31431,3.9044 4.55252,3.85527 4.55252,-0.93897 0,-4.47326 0.84699,-4.81604 7.31591,-2.96078 4.02375,1.15399 11.00204,1.49999 15.50733,0.76889 11.71203,-1.90061 24.89294,3.22909 37.01975,14.40719 7.70745,7.10448 10.51525,8.59209 10.51525,5.57111 0,-7.52095 5.96277,-11.09197 14.45447,-8.65658 8.00936,2.29705 17.71182,0.0519 20.70496,-4.79108 1.18977,-1.92508 2.754,-1.79473 5.48251,0.45689 3.02159,2.49347 4.03063,2.51804 4.83848,0.11781 1.6469,-4.89321 4.0631,-3.53205 7.49568,4.22268 1.76634,3.99045 6.39896,9.13822 10.2947,11.43949 4.97054,2.93618 6.67322,5.47573 5.70873,8.51459 -1.5814,4.98255 0.73728,5.37664 10.2824,1.74759 l 6.79345,-2.58287 -5.85248,6.22968 c -3.21887,3.42633 -7.131,5.95332 -8.69364,5.61555 -1.56264,-0.33777 -5.8784,2.98778 -9.59057,7.39011 -3.71217,4.40234 -12.02972,10.67999 -18.48345,13.95034 -10.4635,5.30226 -14.80452,5.94609 -40.09139,5.94609 -28.20368,0 -28.33356,-0.0263 -23.96609,-4.85229 5.14784,-5.68831 3.4993,-6.13755 -5.57932,-1.52043 -11.40986,5.80272 -17.4427,6.99307 -17.75638,3.50353 z m 88.84163,-28.67071 c -0.86489,-1.39942 -14.0162,-2.44132 -31.07654,-2.462 -34.29039,-0.0416 -49.33819,-3.07206 -84.18023,-16.95308 -23.63139,-9.41471 -35.02684,-11.70841 -20.22632,-4.0712 19.98155,10.31067 51.83915,20.48997 76.04252,24.29747 13.86956,2.18187 60.89376,1.54012 59.44057,-0.81119 z"
           style="fill:#313131;fill-opacity:1" />
        <path
           inkscape:connector-curvature="0"
           id="path4213"
           d="m 203.78043,624.14767 c 5.17176,-5.89006 6.45028,-6.02075 -11.60874,1.18663 -5.69556,2.27311 -7.3576,1.77284 -13.06204,-3.9316 -3.59486,-3.59486 -10.48409,-7.63726 -15.30938,-8.98312 -4.8253,-1.34585 -11.50269,-4.5996 -14.83864,-7.23055 l -6.06536,-4.78354 5.45883,-0.0539 c 9.23735,-0.0913 6.06464,-4.31506 -6.33488,-8.43352 -6.48653,-2.15448 -13.85595,-6.07675 -16.37648,-8.71617 -2.52053,-2.6394 -6.1001,-6.15027 -7.9546,-7.80192 -14.09219,-12.5508 -24.528862,-23.37782 -24.528862,-25.44627 0,-1.52191 3.468255,-1.22176 9.098042,0.78735 5.00393,1.78576 11.8883,3.29476 15.2986,3.35333 3.41031,0.0586 9.87305,2.81597 14.36166,6.12756 5.84794,4.31448 9.01479,5.31258 11.17301,3.52141 2.07081,-1.71862 3.50318,-1.70478 4.58416,0.0443 2.25978,3.6564 6.13817,3.134 6.13817,-0.82679 0,-2.71448 4.13313,-3.1295 21.22878,-2.13167 22.83271,1.33269 33.93434,5.84858 41.04087,16.69451 4.66164,7.11456 8.08859,7.45157 8.08859,0.79544 0,-2.74751 1.09176,-4.32072 2.42614,-3.49603 1.33438,0.82469 2.42615,0.2037 2.42615,-1.37997 0,-2.01525 3.00472,-2.39894 10.01172,-1.27847 7.10083,1.13546 11.64896,0.52818 15.64283,-2.0887 3.0971,-2.02931 7.43614,-2.99699 9.6423,-2.1504 2.20616,0.84658 4.88253,0.12941 5.94748,-1.59374 1.38423,-2.23972 3.05813,-0.96357 5.871,4.47591 2.16409,4.18489 6.91434,9.47227 10.55612,11.74973 3.64178,2.27747 7.04993,4.4449 7.57368,4.81651 0.52374,0.37162 -0.56802,2.51095 -2.42615,4.75407 -3.10091,3.74341 -2.58405,3.92965 6.29239,2.26739 l 9.6708,-1.81101 -4.66543,5.15524 c -2.56598,2.83538 -6.01899,4.63583 -7.67336,4.00099 -1.65436,-0.63484 -5.78684,2.48908 -9.18329,6.94205 -3.39644,4.45297 -11.87907,10.93859 -18.85028,14.4125 -11.43688,5.69923 -15.39037,6.31618 -40.47527,6.31618 l -27.80034,0 4.62178,-5.26368 z m 70.12772,-26.27622 c 0.97113,-1.57132 -9.95439,-2.42614 -31.00862,-2.42614 -37.36634,0 -53.83782,-3.3901 -93.63441,-19.2715 -13.84407,-5.52468 -25.69103,-9.52488 -26.32657,-8.88934 -3.49607,3.49607 46.40409,23.73138 72.11985,29.24574 18.45405,3.9572 76.62149,4.94663 78.84975,1.34124 z"
           style="fill:#1c1c1c;fill-opacity:1" />
        <path
           inkscape:connector-curvature="0"
           id="path4211"
           d="m 202.33936,626.58084 c -0.001,-0.88958 1.36219,-2.10482 3.03016,-2.70053 1.66798,-0.5957 2.31532,-1.85895 1.43854,-2.80722 -0.87678,-0.94826 -4.91668,-0.006 -8.97757,2.094 -10.08714,5.21626 -13.69331,4.81234 -18.1808,-2.03643 -2.10982,-3.21999 -6.91947,-6.53177 -10.68811,-7.3595 -3.76865,-0.82774 -10.62917,-3.84363 -15.24562,-6.70198 l -8.39355,-5.19702 6.06537,-1.61342 c 5.38983,-1.43372 4.1063,-2.50334 -11.52419,-9.60362 -9.67426,-4.39461 -17.58956,-9.33659 -17.58956,-10.98219 0,-1.64559 -4.34055,-5.86442 -9.64566,-9.37518 -9.51646,-6.2977 -18.839383,-17.53434 -16.493994,-19.87973 0.662881,-0.66288 4.157144,-0.0829 7.765024,1.28879 3.60788,1.37171 9.68024,2.49402 13.49413,2.49402 3.857,0 10.13326,2.69171 14.14263,6.06536 7.80789,6.56991 12.57318,7.76529 12.57318,3.15399 0,-2.2644 0.64697,-2.2644 2.91138,0 3.84951,3.84952 6.7932,3.69202 6.7932,-0.36347 0,-2.55153 4.15291,-3.05862 18.80264,-2.29587 26.40138,1.37461 27.87596,1.8711 39.20541,13.20055 7.67425,7.67425 10.80411,9.44357 12.93531,7.31237 1.54631,-1.54631 1.83858,-2.81147 0.64947,-2.81147 -1.18911,0 -0.0427,-1.60116 2.54745,-3.55814 3.03994,-2.29677 7.50851,-3.06041 12.60515,-2.15413 5.18743,0.92243 9.92884,0.0718 13.82321,-2.47986 3.26015,-2.13613 7.73258,-3.19122 9.93874,-2.34463 2.20616,0.84658 4.79677,0.26815 5.75691,-1.28539 1.1234,-1.81769 3.84699,0.36441 7.64012,6.12115 3.24192,4.92017 8.07793,10.12629 10.74669,11.56914 2.66876,1.44285 5.39646,2.98557 6.06155,3.42827 0.66509,0.44269 -0.97256,2.48046 -3.63922,4.52837 -4.54602,3.49119 -4.22086,3.64666 5.2125,2.49219 9.43368,-1.1545 9.83211,-0.96397 6.39025,3.05582 -2.01889,2.3579 -5.50589,3.80718 -7.74888,3.22063 -2.56414,-0.67054 -5.29942,1.21549 -7.36776,5.0802 -4.02261,7.51632 -18.27572,17.67735 -29.44643,20.99233 -8.84222,2.62399 -55.58345,2.16371 -55.58767,-0.5474 z m 73.87362,-28.99812 c 1.33816,-1.24095 -11.06037,-2.13741 -29.56167,-2.13741 -38.79886,0 -57.16464,-3.59184 -94.26154,-18.43496 -26.32899,-10.53468 -34.41999,-12.419 -27.04534,-6.29858 5.46169,4.53281 42.59798,19.63683 58.34134,23.72851 28.37728,7.37524 85.85779,9.32741 92.52721,3.14244 z"
           style="fill:#2b2b2b" />
        <path
           inkscape:connector-curvature="0"
           id="path4209"
           d="m 212.77933,627.81752 c -5.50313,-0.79503 -7.3643,-2.13466 -6.41233,-4.61546 1.67579,-4.36701 -1.06919,-4.32254 -8.88245,0.14392 -8.43962,4.82452 -14.79528,4.46469 -16.20271,-0.91733 -1.15397,-4.4128 -10.10278,-9.99089 -16.05788,-10.00939 -1.60519,-0.005 -6.7397,-2.38013 -11.41004,-5.27808 l -8.49151,-5.26902 6.06537,-1.62489 c 5.52948,-1.48134 4.81444,-2.19029 -8.09317,-8.02428 -7.78719,-3.51967 -18.56708,-10.51216 -23.95531,-15.53888 -16.71747,-15.59583 -23.752876,-22.92742 -23.752876,-24.75283 0,-3.38849 32.792226,5.02638 37.754576,9.68826 5.65368,5.31136 10.76834,6.16662 10.76834,1.80064 0,-2.2644 0.64697,-2.2644 2.91138,0 3.83753,3.83754 6.7932,3.69542 6.7932,-0.32662 0,-2.52847 4.38597,-2.99335 20.01571,-2.1215 22.0993,1.23272 28.70115,3.72866 39.27224,14.84748 7.19675,7.56965 15.05573,10.20564 12.78501,4.28824 -1.82433,-4.75412 6.7722,-9.04615 14.8734,-7.42591 3.969,0.79379 9.60967,0.0283 12.83576,-1.74202 9.8182,-5.38763 20.74702,-4.60674 23.61479,1.68734 1.3783,3.02503 5.80319,7.93778 9.83309,10.91721 6.6974,4.9516 6.96938,5.67871 3.16484,8.46067 -5.99351,4.38256 -2.71068,6.15288 6.50733,3.5092 6.80995,-1.95307 7.51614,-1.77592 5.00107,1.25456 -1.61074,1.94082 -4.46594,3.52877 -6.34489,3.52877 -1.87895,0 -6.73456,3.77932 -10.79024,8.39849 -12.9798,14.78316 -21.96865,18.76088 -44.16046,19.54176 -10.93875,0.38491 -23.37775,0.19577 -27.64224,-0.42033 z m 65.42748,-29.63505 c 1.17981,-1.17982 -15.22804,-2.59034 -37.49255,-3.2231 -38.74666,-1.10119 -40.18517,-1.33468 -67.49117,-10.95479 -15.34537,-5.40628 -33.63245,-12.13581 -40.63794,-14.9545 -20.08338,-8.08063 -14.84601,-1.44762 7.27844,9.21798 23.01651,11.09564 48.86155,18.66604 74.74506,21.89394 20.14702,2.51251 60.3577,1.26093 63.59816,-1.97953 z"
           style="fill:#232323" />
        <path
           inkscape:connector-curvature="0"
           id="path4207"
           d="m 213.99042,627.79088 c -6.56677,-0.79308 -8.60893,-2.02062 -7.6254,-4.58364 1.67965,-4.37711 1.0493,-4.36068 -10.01218,0.26111 -8.7423,3.65276 -9.16416,3.58738 -14.58331,-2.25997 -3.06932,-3.31186 -9.82987,-7.16577 -15.02345,-8.56425 -5.19357,-1.39849 -11.59266,-4.1247 -14.22019,-6.05827 -4.43947,-3.26694 -4.47707,-3.63196 -0.53157,-5.16148 7.09459,-2.75031 4.84741,-5.38927 -8.31081,-9.75973 -6.92853,-2.30129 -16.66987,-8.09771 -21.73365,-12.93225 -5.04739,-4.81889 -13.04401,-12.34074 -17.77026,-16.71522 -10.247492,-9.48477 -11.190377,-13.536 -2.36987,-10.18245 3.42282,1.30136 9.27518,2.3661 13.00524,2.3661 3.73006,0 10.80395,2.72941 15.71975,6.06536 9.86386,6.6938 13.57462,7.55597 13.57462,3.15399 0,-2.2644 0.64697,-2.2644 2.91138,0 3.78483,3.78484 6.7932,3.71024 6.7932,-0.16844 0,-2.29231 4.80788,-2.87701 18.80264,-2.28662 22.769,0.96053 29.09649,3.20178 39.58228,14.02036 9.45886,9.75907 12.38404,10.29558 15.64951,2.87028 2.04664,-4.65384 3.94251,-5.34276 12.85634,-4.67175 6.57776,0.49516 12.60262,-0.61964 16.24423,-3.00572 3.77541,-2.47374 6.32953,-2.91744 7.34412,-1.2758 1.04747,1.69484 2.69289,1.5731 5.03744,-0.3727 1.91502,-1.58932 3.76457,-2.46116 4.11012,-1.93742 0.34554,0.52375 2.04236,3.76977 3.77071,7.21338 1.72834,3.44361 6.49431,8.24111 10.59102,10.6611 l 7.44858,4.39998 -6.85659,3.59253 c -5.55219,2.90908 -14.27478,3.35049 -45.8505,2.32029 -43.18919,-1.40912 -54.13412,-3.67586 -92.22789,-19.1008 -13.42148,-5.43462 -25.76739,-10.42371 -27.43537,-11.08685 -1.66797,-0.66315 -3.03268,-0.0129 -3.03268,1.44506 0,1.45794 6.58061,5.97267 14.62357,10.03275 41.00797,20.70076 96.3574,30.46735 137.44351,24.25236 11.7713,-1.78061 24.02137,-4.187 27.22239,-5.34752 5.05707,-1.83344 5.41569,-1.62285 2.73561,1.60645 -1.69643,2.04407 -4.62174,3.7165 -6.50069,3.7165 -1.87895,0 -6.82779,3.8855 -10.99742,8.63444 -14.56397,16.58746 -37.75055,22.80008 -70.38443,18.85884 z"
           style="fill:#1b1b1b" />
        <path
           inkscape:connector-curvature="0"
           id="path4205"
           d="m 216.54631,627.7833 c -9.85095,-0.91189 -11.10567,-1.65233 -9.99529,-5.89842 1.25771,-4.80948 1.17773,-4.80764 -8.41764,0.19375 l -9.68741,5.04935 -7.86802,-7.34982 c -4.32741,-4.04241 -9.9903,-7.34983 -12.58421,-7.34983 -2.59391,0 -8.14519,-1.77321 -12.33619,-3.94045 -6.85608,-3.54542 -7.20884,-4.2411 -3.51874,-6.93937 5.85279,-4.27966 5.22614,-5.36498 -4.99679,-8.65409 -12.61975,-4.06025 -22.44185,-10.0475 -22.44185,-13.67985 0,-1.6796 -3.00235,-4.62204 -6.6719,-6.53874 -7.70713,-4.02566 -21.473098,-17.82632 -19.624979,-19.67444 2.466339,-2.46633 26.827329,3.67288 33.539329,8.45225 7.57347,5.39279 12.16672,6.25297 12.16672,2.27848 0,-1.4297 1.85828,-0.74117 4.12951,1.53007 3.88859,3.88858 4.24847,3.86292 6.16843,-0.43986 1.83376,-4.10962 4.0424,-4.43218 21.95155,-3.20591 21.92395,1.50117 26.23288,3.16772 36.74304,14.21094 7.08066,7.43978 13.49643,9.79697 13.49643,4.95867 0,-5.76609 6.20515,-8.959 15.09403,-7.76675 5.91709,0.79365 11.07554,-0.10146 14.85465,-2.57763 4.43851,-2.90823 6.45569,-3.12745 8.64374,-0.9394 2.18805,2.18805 3.33955,2.06866 4.93423,-0.51159 1.58383,-2.56268 3.0347,-1.51975 6.08104,4.37122 2.2005,4.25531 6.67781,8.9566 9.94958,10.44731 15.26903,6.95704 2.27953,11.6457 -32.10363,11.58806 -46.7571,-0.0784 -59.56953,-2.66685 -107.21297,-21.65998 -13.84407,-5.51896 -25.78071,-9.42481 -26.52586,-8.67966 -5.68281,5.68282 46.22943,27.37928 79.38371,33.17802 19.25619,3.36795 64.75069,4.05827 81.36445,1.23461 l 12.00542,-2.04043 -6.20721,8.1058 c -10.45002,13.64636 -25.48836,21.41462 -43.39336,22.41544 -8.61011,0.48127 -20.72403,0.40579 -26.91981,-0.16774 z m 77.98408,-29.91185 c 0,-1.33438 1.70208,-2.42614 3.7824,-2.42614 2.08032,0 3.10765,1.09176 2.28296,2.42614 -0.82469,1.33438 -2.52677,2.42615 -3.7824,2.42615 -1.25563,0 -2.28296,-1.09177 -2.28296,-2.42615 z"
           style="fill:#131313" />
        <path
           inkscape:connector-curvature="0"
           id="path4203"
           d="m 218.10679,627.11582 c -8.85662,-0.81752 -13.35382,-2.12187 -11.48462,-3.33094 7.06754,-4.57155 -0.41502,-6.1019 -8.83415,-1.80679 l -9.13705,4.66138 -6.70652,-7.10557 c -3.68859,-3.90807 -9.07045,-7.15133 -11.9597,-7.20727 -2.88924,-0.0559 -8.9436,-2.06809 -13.45413,-4.47146 -6.41357,-3.41738 -7.33893,-4.70057 -4.24576,-5.88753 5.20562,-1.99758 5.0482,-6.33294 -0.29054,-8.00189 -12.14783,-3.79753 -27.29415,-11.84801 -27.29415,-14.50723 0,-1.66465 -3.56686,-5.23107 -7.92636,-7.92539 -8.68168,-5.36557 -20.189483,-16.72006 -18.568629,-18.32124 2.768059,-2.73446 28.249659,4.4602 34.538389,9.75182 4.96724,4.17966 7.9269,5.2151 9.99665,3.49736 2.00382,-1.66302 3.90114,-1.49271 5.95724,0.53475 2.38632,2.35308 3.67269,2.08743 6.15379,-1.2708 2.43438,-3.29499 6.70881,-4.24575 19.0879,-4.24575 19.86867,0 25.56762,2.14368 39.26539,14.76985 9.74001,8.97802 11.08959,9.56834 12.63354,5.52595 3.02456,-7.9189 5.97421,-9.39888 16.97405,-8.51667 7.57181,0.60727 12.06263,-0.33425 15.219,-3.19073 3.06853,-2.77698 4.99944,-3.2079 6.13575,-1.36932 0.91196,1.47558 3.47682,2.11029 5.69969,1.41047 2.72684,-0.8585 5.42943,1.15811 8.30794,6.1992 2.3465,4.10938 6.44062,8.04019 9.09805,8.73512 6.77414,1.77148 6.01156,5.20668 -1.84022,8.28975 -9.11761,3.5801 -75.94735,0.64961 -94.34185,-4.1369 -7.8255,-2.03631 -26.17819,-8.55973 -40.78376,-14.49648 -14.60557,-5.93675 -27.9797,-10.7941 -29.72029,-10.7941 -13.16906,0 15.51721,16.14319 46.92395,26.40643 11.91375,3.89324 32.25861,8.41249 45.21081,10.04279 22.82235,2.87267 60.36328,2.17386 71.49807,-1.3309 8.67838,-2.73158 6.65832,3.33801 -4.55685,13.69179 -14.40882,13.30215 -31.11427,17.21022 -61.55563,14.4003 z m 78.84974,-29.24437 c 0,-1.33438 1.1562,-2.42614 2.56933,-2.42614 1.41313,0 1.89458,1.09176 1.06989,2.42614 -0.82469,1.33438 -1.98089,2.42615 -2.56933,2.42615 -0.58844,0 -1.06989,-1.09177 -1.06989,-2.42615 z"
           style="fill:#0b0b0b" />
        <path
           inkscape:connector-curvature="0"
           id="path4201"
           d="m 208.40221,622.13291 c 1.85445,-5.84287 -0.44251,-6.07512 -10.4935,-1.06103 -7.02378,3.50393 -8.05758,3.45796 -13.64031,-0.60653 -3.32229,-2.41879 -6.07484,-5.21663 -6.11677,-6.21741 -0.0419,-1.00079 -2.12645,-1.81961 -4.63225,-1.81961 -2.5058,0 -8.73035,-1.74416 -13.83235,-3.87591 -7.99111,-3.3389 -8.68581,-4.20639 -5.01405,-6.26121 3.36301,-1.88203 3.65935,-3.11181 1.40456,-5.82867 -1.57177,-1.89386 -3.82774,-3.44338 -5.01327,-3.44338 -5.5583,0 -23.57567,-10.48335 -24.57318,-14.29782 -0.9498,-3.63205 1.73524,-3.05234 17.56876,3.79315 35.78901,15.47309 52.22149,18.55654 100.126,18.78806 23.68415,0.11447 43.06299,0.91385 43.06409,1.7764 0.004,3.00076 -17.89316,17.25653 -25.82469,20.57053 -4.89221,2.0441 -17.00153,3.33572 -31.2733,3.33572 -22.18572,0 -23.21679,-0.23003 -21.74974,-4.85229 z m -16.98302,-33.85086 c -23.37269,-6.15169 -50.00661,-17.12368 -48.29389,-19.89493 0.85329,-1.38064 2.73422,-1.19718 4.73298,0.46164 3.70439,3.07438 8.38179,1.20612 8.38179,-3.34787 0,-2.13014 4.97597,-2.78555 17.58956,-2.31684 24.14847,0.89734 26.4705,1.69569 37.24927,12.80681 10.86893,11.20407 13.43336,11.8595 16.78928,4.29104 1.97804,-4.461 4.11781,-5.35671 11.70601,-4.90016 5.10703,0.30727 12.192,-0.82432 15.74437,-2.51465 9.5218,-4.53075 18.02368,-2.46959 23.49451,5.69592 2.63981,3.94007 6.16437,7.1669 7.83234,7.17074 4.31858,0.01 3.75744,4.06201 -0.80496,5.81277 -2.11071,0.80995 -20.39778,1.41253 -40.63795,1.33905 -27.64451,-0.10035 -41.02561,-1.24569 -53.78331,-4.60352 z m -80.79793,-22.16038 c -5.6004,-4.11858 -10.18254,-8.48564 -10.18254,-9.70458 0,-4.78621 24.31218,-0.086 30.24546,5.8473 3.40943,3.40943 2.95534,3.63792 -4.74615,2.38814 -8.70153,-1.41206 -10.79972,0.85129 -5.60492,6.04609 5.20316,5.20315 0.70347,3.08257 -9.71185,-4.57695 z"
           style="fill:#000000" />
      </g>
      <text
         sodipodi:linespacing="125%"
         id="text4245"
         y="800.49359"
         x="152.14932"
         style="font-style:normal;font-weight:normal;font-size:40px;line-height:125%;font-family:sans-serif;letter-spacing:0px;word-spacing:0px;fill:#000000;fill-opacity:1;stroke:none;stroke-width:1px;stroke-linecap:butt;stroke-linejoin:miter;stroke-opacity:1"
         xml:space="preserve"><tspan
           y="800.49359"
           x="152.14932"
           id="tspan4247"
           sodipodi:role="line">Light<tspan
   id="tspan4249"
   style="font-weight:bold">POS</tspan></tspan></text>
    </g>
  </g>
</svg>
